<svg xmlns="http://www.w3.org/2000/svg" viewBox="0 0 1200 1200">
  <defs>
    <style>
      .bg{fill:#000;}
      .outer{fill:#000;stroke:#fff;stroke-width:10;stroke-linejoin:round;}
      .thin{fill:none;stroke:#fff;stroke-width:4;stroke-linecap:round;stroke-linejoin:round;}
      .line{fill:none;stroke:#fff;stroke-width:6;stroke-linecap:round;stroke-linejoin:round;}
      .wfill{fill:#fff;}
      .txt{font-family:Arial,Helvetica,sans-serif;font-weight:700;fill:#fff;}
    </style>
  </defs>

  <rect x="0" y="0" width="1200" height="1200" class="bg"/>
  <rect x="80" y="80" width="1040" height="1040" rx="10" class="outer"/>
  <rect x="105" y="105" width="990" height="990" rx="8" class="thin"/>

  <line x1="340" y1="105" x2="340" y2="1095" class="thin"/>
  <line x1="600" y1="105" x2="600" y2="1095" class="thin"/>
  <line x1="860" y1="105" x2="860" y2="1095" class="thin"/>

  <g>
    <rect x="140" y="165" width="160" height="22" rx="11" class="wfill"/>
    <rect x="170" y="155" width="100" height="42" rx="21" fill="#000"/>
    <rect x="140" y="1013" width="160" height="22" rx="11" class="wfill"/>
    <rect x="170" y="1003" width="100" height="42" rx="21" fill="#000"/>
    <text x="220" y="690" class="txt" font-size="180" text-anchor="middle">D</text>
  </g>

  <g transform="translate(260,0)">
    <rect x="140" y="165" width="160" height="22" rx="11" class="wfill"/>
    <rect x="170" y="155" width="100" height="42" rx="21" fill="#000"/>
    <rect x="140" y="1013" width="160" height="22" rx="11" class="wfill"/>
    <rect x="170" y="1003" width="100" height="42" rx="21" fill="#000"/>
    <text x="220" y="690" class="txt" font-size="180" text-anchor="middle">D</text>
  </g>

  <g transform="translate(520,0)">
    <rect x="140" y="165" width="160" height="22" rx="11" class="wfill"/>
    <rect x="170" y="155" width="100" height="42" rx="21" fill="#000"/>
    <rect x="140" y="1013" width="160" height="22" rx="11" class="wfill"/>
    <rect x="170" y="1003" width="100" height="42" rx="21" fill="#000"/>
    <text x="220" y="690" class="txt" font-size="180" text-anchor="middle">D</text>
  </g>

  <g transform="translate(780,0)">
    <rect x="140" y="165" width="160" height="22" rx="11" class="wfill"/>
    <rect x="170" y="155" width="100" height="42" rx="21" fill="#000"/>
    <rect x="140" y="1013" width="160" height="22" rx="11" class="wfill"/>
    <rect x="170" y="1003" width="100" height="42" rx="21" fill="#000"/>
    <text x="220" y="690" class="txt" font-size="180" text-anchor="middle">D</text>
  </g>
</svg>
